<?xml version="1.0" encoding="utf-8"?>
<!-- Generator: Adobe Illustrator 16.0.0, SVG Export Plug-In . SVG Version: 6.00 Build 0)  -->
<!DOCTYPE svg PUBLIC "-//W3C//DTD SVG 1.1//EN" "http://www.w3.org/Graphics/SVG/1.1/DTD/svg11.dtd" [
	<!ENTITY ns_extend "http://ns.adobe.com/Extensibility/1.0/">
	<!ENTITY ns_ai "http://ns.adobe.com/AdobeIllustrator/10.0/">
	<!ENTITY ns_graphs "http://ns.adobe.com/Graphs/1.0/">
	<!ENTITY ns_vars "http://ns.adobe.com/Variables/1.0/">
	<!ENTITY ns_imrep "http://ns.adobe.com/ImageReplacement/1.0/">
	<!ENTITY ns_sfw "http://ns.adobe.com/SaveForWeb/1.0/">
	<!ENTITY ns_custom "http://ns.adobe.com/GenericCustomNamespace/1.0/">
	<!ENTITY ns_adobe_xpath "http://ns.adobe.com/XPath/1.0/">
]>
<svg version="1.1" id="Capa_1" xmlns:x="&ns_extend;" xmlns:i="&ns_ai;" xmlns:graph="&ns_graphs;"
	 xmlns="http://www.w3.org/2000/svg" xmlns:xlink="http://www.w3.org/1999/xlink" x="0px" y="0px" width="196.938px"
	 height="67.895px" viewBox="0 36.894 196.938 67.895" enable-background="new 0 36.894 196.938 67.895" xml:space="preserve">
<metadata>
	<sfw  xmlns="&ns_sfw;">
		<slices></slices>
		<sliceSourceBounds  width="185.609" height="56.606" x="265.819" y="249.193" bottomLeftOrigin="true"></sliceSourceBounds>
	</sfw>
</metadata>
<g>
	<g>
		
			<linearGradient id="SVGID_1_" gradientUnits="userSpaceOnUse" x1="10.5234" y1="62.1841" x2="57.4546" y2="2.1149" gradientTransform="matrix(1 0 0 -1 -0.0449 104.5479)">
			<stop  offset="0" style="stop-color:#2DA6D3"/>
			<stop  offset="0.5515" style="stop-color:#24668E"/>
			<stop  offset="1" style="stop-color:#23456B"/>
		</linearGradient>
		<path fill="url(#SVGID_1_)" d="M62.132,96.876c0,2.113-1.711,3.824-3.821,3.824H9.58c-2.112,0-3.823-1.711-3.823-3.824V47.918
			c0-2.111,1.711-3.823,3.823-3.823h48.732c2.109,0,3.821,1.712,3.821,3.823V96.876z"/>
		<g>
			<g>
				<path fill="#FFFFFF" d="M27.558,78.562c0,2.875-0.591,4.932-2.028,6.229c-1.409,1.267-3.41,1.66-5.297,1.66
					c-1.748,0-3.607-0.394-4.791-1.099l0.761-2.62c0.874,0.508,2.338,1.043,4.001,1.043c2.254,0,3.945-1.186,3.945-4.144V78.45
					h-0.057c-0.789,1.212-2.169,2.028-4.001,2.028c-3.41,0-5.833-2.816-5.833-6.707c0-4.509,2.931-7.242,6.227-7.242
					c2.114,0,3.326,1.017,3.973,2.143h0.057l0.141-1.831h3.015c-0.057,0.929-0.113,2.057-0.113,3.944L27.558,78.562L27.558,78.562z
					 M24.092,72.335c0-0.34-0.029-0.648-0.112-0.932c-0.367-1.267-1.353-2.228-2.818-2.228c-1.944,0-3.381,1.693-3.381,4.481
					c0,2.338,1.183,4.227,3.352,4.227c1.297,0,2.424-0.845,2.818-2.112c0.112-0.339,0.141-0.818,0.141-1.212V72.335z"/>
			</g>
			<g>
				<path fill="#FFFFFF" d="M36.626,79.21c0.148,4.338,3.551,6.211,7.396,6.211c2.81,0,4.783-0.442,6.657-1.084l0.888,4.143
					c-2.071,0.887-4.931,1.528-8.382,1.528c-7.791,0-12.376-4.782-12.376-12.13c0-6.656,4.043-12.92,11.735-12.92
					c7.792,0,10.355,6.409,10.355,11.686c0,1.135-0.098,2.022-0.196,2.565L36.626,79.21L36.626,79.21z M47.178,74.97
					c0.049-2.221-0.937-5.871-4.98-5.871c-3.748,0-5.325,3.405-5.572,5.871H47.178z"/>
			</g>
			<g>
				<path fill="#FFFFFF" d="M44.516,52.938c-0.436,2.362-1.454,4.35-3.056,5.961c-1.601,1.614-3.55,2.421-5.843,2.421
					c-0.554,0-1.078-0.072-1.572-0.213c-0.495-0.141-1.719-0.6-3.677-1.374c-1.958-0.775-3.61-1.162-4.954-1.162
					c-0.277,0-0.692,0.044-1.246,0.134c-0.514,0.224-0.958,0.593-1.334,1.105c-0.377,0.516-0.742,1.018-1.098,1.51h-3.085
					c0.277-2.19,1.255-4.023,2.936-5.498c1.681-1.475,3.648-2.213,5.903-2.213c0.633,0,1.384,0.121,2.254,0.363l6.228,2.186
					c0.158,0,0.416,0,0.771,0c0.275,0,0.633-0.036,1.067-0.106c0.436-0.07,0.821-0.174,1.158-0.314
					c0.334-0.141,0.721-0.466,1.155-0.979c0.436-0.515,0.832-1.119,1.188-1.819H44.516L44.516,52.938z"/>
			</g>
		</g>
	</g>
	<g>
		<path fill="#9D9D9C" d="M81.738,53.161c-0.043,0.762-0.087,1.61-0.087,2.896v6.116c0,2.416-0.479,3.896-1.502,4.812
			c-1.022,0.958-2.503,1.263-3.831,1.263c-1.262,0-2.655-0.305-3.504-0.872l0.479-1.457c0.697,0.435,1.785,0.827,3.091,0.827
			c1.959,0,3.396-1.023,3.396-3.679V61.89h-0.044c-0.587,0.979-1.72,1.764-3.352,1.764c-2.612,0-4.484-2.221-4.484-5.138
			c0-3.569,2.329-5.594,4.745-5.594c1.828,0,2.831,0.958,3.288,1.828h0.042l0.088-1.589L81.738,53.161L81.738,53.161z
			 M79.757,57.318c0-0.326-0.022-0.609-0.109-0.87c-0.348-1.11-1.284-2.024-2.677-2.024c-1.829,0-3.135,1.545-3.135,3.982
			c0,2.068,1.045,3.788,3.113,3.788c1.175,0,2.242-0.74,2.656-1.959c0.109-0.326,0.152-0.696,0.152-1.023L79.757,57.318
			L79.757,57.318z"/>
		<path fill="#9D9D9C" d="M84.155,56.448c0-1.241-0.021-2.308-0.087-3.287h1.675l0.065,2.067h0.087
			c0.479-1.414,1.633-2.308,2.917-2.308c0.217,0,0.37,0.022,0.543,0.065v1.808c-0.196-0.044-0.391-0.065-0.653-0.065
			c-1.349,0-2.307,1.023-2.568,2.459c-0.043,0.262-0.088,0.566-0.088,0.893v5.616h-1.892V56.448z"/>
		<path fill="#9D9D9C" d="M99.546,60.823c0,1.089,0.021,2.047,0.087,2.873h-1.698l-0.109-1.72h-0.043
			c-0.5,0.849-1.61,1.959-3.482,1.959c-1.655,0-3.636-0.914-3.636-4.614v-6.16h1.916v5.833c0,2.003,0.609,3.353,2.351,3.353
			c1.284,0,2.177-0.893,2.525-1.741c0.109-0.283,0.174-0.631,0.174-0.979v-6.465h1.916V60.823z"/>
		<path fill="#9D9D9C" d="M101.637,56.6c0-1.35-0.043-2.438-0.088-3.439h1.72l0.088,1.807h0.042
			c0.784-1.284,2.024-2.047,3.744-2.047c2.547,0,4.462,2.155,4.462,5.355c0,3.787-2.307,5.659-4.789,5.659
			c-1.393,0-2.612-0.609-3.243-1.654h-0.043v5.725h-1.893V56.6L101.637,56.6z M103.53,59.408c0,0.283,0.044,0.544,0.088,0.783
			c0.348,1.329,1.501,2.243,2.873,2.243c2.025,0,3.2-1.654,3.2-4.07c0-2.112-1.11-3.918-3.135-3.918
			c-1.307,0-2.525,0.935-2.895,2.372c-0.065,0.239-0.131,0.522-0.131,0.783V59.408L103.53,59.408z"/>
		<path fill="#9D9D9C" d="M122.468,58.341c0,3.896-2.699,5.594-5.246,5.594c-2.852,0-5.05-2.09-5.05-5.42
			c0-3.526,2.307-5.595,5.224-5.595C120.423,52.92,122.468,55.12,122.468,58.341z M114.11,58.45c0,2.308,1.328,4.049,3.199,4.049
			c1.829,0,3.201-1.719,3.201-4.093c0-1.784-0.893-4.048-3.157-4.048C115.09,54.358,114.11,56.448,114.11,58.45z"/>
		<path d="M77.467,83.987c0.125,3.678,3.009,5.267,6.27,5.267c2.382,0,4.096-0.334,5.643-0.919l0.752,3.553
			c-1.755,0.711-4.18,1.255-7.106,1.255c-6.604,0-10.491-4.056-10.491-10.284c0-5.643,3.427-10.951,9.948-10.951
			c6.605,0,8.778,5.434,8.778,9.907c0,0.961-0.083,1.714-0.167,2.173H77.467z M86.412,80.393c0.042-1.882-0.794-4.976-4.222-4.976
			c-3.177,0-4.515,2.885-4.723,4.976H86.412z"/>
		<path d="M94.354,78.427c0-2.341-0.042-4.305-0.167-6.061h4.515l0.25,3.051h0.126c0.877-1.588,3.093-3.511,6.479-3.511
			c3.553,0,7.231,2.3,7.231,8.736v12.08h-5.142V81.228c0-2.926-1.086-5.142-3.888-5.142c-2.048,0-3.469,1.464-4.013,3.01
			c-0.167,0.46-0.209,1.088-0.209,1.672v11.955h-5.183V78.427z"/>
		<path d="M132.181,92.096c-1.087,0.502-3.218,1.046-5.769,1.046c-6.353,0-10.492-4.056-10.492-10.367
			c0-6.103,4.18-10.868,11.328-10.868c1.88,0,3.804,0.417,4.975,0.961l-0.919,3.846c-0.836-0.375-2.048-0.794-3.888-0.794
			c-3.929,0-6.27,2.885-6.228,6.604c0,4.181,2.717,6.563,6.228,6.563c1.798,0,3.052-0.376,4.055-0.794L132.181,92.096z"/>
		<path d="M140.415,66.681c0,1.547-1.129,2.759-2.927,2.759c-1.713,0-2.841-1.212-2.841-2.759c0-1.589,1.17-2.8,2.884-2.8
			C139.286,63.881,140.373,65.092,140.415,66.681z M134.939,92.723V72.367h5.183v20.356H134.939z"/>
		<path d="M159.558,92.096c-1.087,0.502-3.218,1.046-5.769,1.046c-6.353,0-10.492-4.056-10.492-10.367
			c0-6.103,4.179-10.868,11.327-10.868c1.881,0,3.805,0.417,4.975,0.961l-0.92,3.846c-0.836-0.375-2.048-0.794-3.887-0.794
			c-3.929,0-6.27,2.885-6.228,6.604c0,4.181,2.717,6.563,6.228,6.563c1.798,0,3.051-0.376,4.055-0.794L159.558,92.096z"/>
		<path d="M162.316,63.045h5.183v29.678h-5.183V63.045z"/>
		<path d="M191.366,82.357c0,7.482-5.267,10.825-10.449,10.825c-5.769,0-10.2-3.97-10.2-10.492c0-6.688,4.39-10.784,10.534-10.784
			C187.313,71.907,191.366,76.17,191.366,82.357z M176.025,82.566c0,3.93,1.923,6.896,5.058,6.896c2.927,0,4.975-2.885,4.975-6.98
			c0-3.178-1.421-6.814-4.932-6.814C177.489,75.668,176.025,79.179,176.025,82.566z"/>
	</g>
</g>
</svg>
